<svg width="94" height="92" viewBox="0 0 94 92" fill="none" xmlns="http://www.w3.org/2000/svg">
<path fill-rule="evenodd" clip-rule="evenodd" d="M52.4844 91.4348C75.4824 88.7742 93.3307 69.3903 93.3307 45.8729C93.3307 23.2664 76.8382 4.47895 55.1318 0.694438L49.2342 6.54196L36.533 19.1353L29.151 26.4546L24.0772 31.4853L24.0566 31.5057C21.2706 34.2764 19.7078 38.0304 19.7117 41.9428C19.7155 45.8553 21.2857 49.6062 24.0772 52.3715L24.2057 52.4989C25.8301 54.0762 27.7988 55.2617 29.9594 55.9636C32.3705 56.7479 34.9436 56.9093 37.4352 56.4325C40.2414 55.8964 42.8322 54.5691 44.8968 52.6098L45.1371 52.3715L50.2109 47.3408L53.6192 43.9615C54.7322 42.8545 56.1398 42.0842 57.6777 41.7405C57.8795 41.6946 58.0826 41.6576 58.2856 41.6271C59.5472 41.4383 60.8356 41.5391 62.0517 41.9218C63.2678 42.3044 64.3791 42.9586 65.3 43.8341L65.4286 43.9615C66.9912 45.511 67.8709 47.6114 67.875 49.8026C67.8791 51.9939 67.0073 54.0975 65.4504 55.6527C65.4427 55.6603 65.4363 55.668 65.4286 55.6744C65.4208 55.6807 65.4144 55.6884 65.4067 55.696L56.7036 64.3214L55.3375 65.6772L50.2148 70.7551L42.9138 77.9992L36.9018 83.9614C36.2978 83.8033 35.698 83.6334 35.1026 83.4517C30.5943 82.0389 26.3773 79.8381 22.6507 76.953C18.2911 73.5834 14.6853 69.3522 12.0622 64.5278C8.94958 58.7949 7.32597 52.3837 7.33795 45.8729C7.33736 43.9204 7.48211 41.9706 7.77105 40.0394C8.80413 33.1512 11.6629 26.6584 16.0552 21.2244C20.4475 15.7903 26.216 11.6096 32.7713 9.10956L41.6453 0.317261C18.6474 2.97152 0.799046 22.3554 0.799046 45.8729C0.799046 68.4793 17.2915 87.2667 38.9992 91.0513L44.8955 85.2037L57.6032 72.6104L64.9852 65.2911L70.059 60.2604L70.0796 60.24C72.8647 57.4684 74.4263 53.714 74.4213 49.8016C74.4162 45.8891 72.8449 42.1386 70.0526 39.3742L69.924 39.2468C68.2997 37.6695 66.331 36.484 64.1704 35.7821C61.7592 34.9978 59.1862 34.8364 56.6946 35.3132C54.5034 35.7305 52.4356 36.6331 50.6453 37.9534C50.15 38.3183 49.6779 38.7133 49.2317 39.1359L48.9926 39.3742L43.9188 44.4049L40.5105 47.7842C39.3975 48.8912 37.9899 49.6615 36.452 50.0052C36.2502 50.0511 36.0485 50.0881 35.8441 50.1186C34.5826 50.3074 33.2941 50.2066 32.0781 49.8239C30.862 49.4413 29.7507 48.7871 28.8297 47.9116L28.7012 47.7842C27.1385 46.2347 26.2588 44.1344 26.2547 41.9431C26.2506 39.7518 27.1225 37.6483 28.6793 36.093L28.7012 36.0713L28.723 36.0497L37.4262 27.4243L38.7923 26.0685L43.9149 20.9906L50.5618 14.399L57.2279 7.78817C57.8277 7.94617 58.4274 8.11607 59.0272 8.29787C75.1187 13.3299 86.7918 28.25 86.7918 45.8729C86.7924 47.8253 86.6476 49.7751 86.3587 51.7064C86.1117 53.3604 85.7576 54.9969 85.2984 56.6058C83.6125 62.4859 80.5726 67.8976 76.4183 72.4147C72.264 76.9317 67.1087 80.4307 61.3584 82.6361L52.4844 91.4348Z" fill="#002357"/>
<path fill-rule="evenodd" clip-rule="evenodd" d="M49.9456 91.6579L57.8892 83.7818L62.4721 79.2378L75.8377 65.9857C80.0909 61.7761 82.5132 56.0831 82.5861 50.1251C82.5964 49.386 82.5703 48.6478 82.5077 47.9105C82.0606 42.5214 79.6945 37.4658 75.8326 33.6478L75.7041 33.5204C74.1259 31.9776 72.3318 30.6683 70.3771 29.6327C69.863 29.3625 69.3447 29.1124 68.822 28.8822C66.4837 27.8629 63.9908 27.2359 61.4452 27.0269C60.7024 26.9657 59.9579 26.9398 59.2116 26.9491C57.0549 26.9784 54.9128 27.3061 52.8475 27.9226C50.6753 28.5706 48.6123 29.5351 46.7263 30.7846C46.273 31.0853 45.8275 31.4039 45.3897 31.7403C44.6217 32.3313 43.892 32.9697 43.2049 33.6517L40.6346 36.2002L33.5559 43.2187C33.2521 43.5199 33.0112 43.8775 32.8468 44.271C32.6823 44.6646 32.5977 45.0864 32.5977 45.5123C32.5977 45.9383 32.6823 46.3601 32.8468 46.7537C33.0112 47.1472 33.2521 47.5048 33.5559 47.806C33.8597 48.1072 34.2204 48.3461 34.6173 48.5091C35.0142 48.6721 35.4396 48.756 35.8692 48.756C36.2988 48.756 36.7242 48.6721 37.1212 48.5091C37.5181 48.3461 37.8787 48.1072 38.1825 47.806L42.8656 43.1626L47.8354 38.2275C48.1412 37.9242 48.4552 37.6358 48.7774 37.3623C49.2144 36.991 49.6704 36.6423 50.1435 36.3174C51.9582 35.0759 54.0062 34.2092 56.1658 33.7689C58.6593 33.2586 61.2378 33.3236 63.702 33.9588C66.4851 34.6767 69.0296 36.106 71.0814 38.1039C71.1251 38.1447 71.1675 38.1867 71.2099 38.2313C72.7455 39.7524 73.9638 41.5588 74.7949 43.547C75.6261 45.5352 76.0539 47.6664 76.0539 49.8187C76.0539 51.9709 75.6261 54.1021 74.7949 56.0903C73.9638 58.0785 72.7455 59.8849 71.2099 61.406L59.8311 72.6869L47.1504 85.2612L41.0047 91.3546C43.0139 91.6153 45.038 91.746 47.0643 91.7458C48.0316 91.7458 48.992 91.7165 49.9456 91.6579Z" fill="url(#paint0_linear_71_11822)"/>
<path fill-rule="evenodd" clip-rule="evenodd" d="M41.2809 63.8232C43.4531 63.1753 45.5161 62.2107 47.4021 60.9612C47.8554 60.6605 48.3009 60.3419 48.7387 60.0055C49.5067 59.4145 50.2364 58.7761 50.9235 58.0942L53.4938 55.5457L60.5725 48.5271C60.8763 48.2259 61.1172 47.8683 61.2817 47.4748C61.4461 47.0813 61.5307 46.6595 61.5307 46.2335C61.5307 45.8075 61.4461 45.3857 61.2817 44.9922C61.1172 44.5986 60.8763 44.241 60.5725 43.9398C60.2687 43.6386 59.9081 43.3997 59.5111 43.2367C59.1142 43.0737 58.6888 42.9898 58.2592 42.9898C57.8296 42.9898 57.4042 43.0737 57.0072 43.2367C56.6103 43.3997 56.2497 43.6386 55.9459 43.9398L51.2628 48.5832L46.2931 53.5184C45.9872 53.8216 45.6732 54.11 45.351 54.3836C44.914 54.7548 44.458 55.1035 43.9849 55.4284C42.1703 56.67 40.1222 57.5367 37.9626 57.9769C35.4691 58.4872 32.8906 58.4222 30.4264 57.7871C27.6433 57.0691 25.0989 55.6398 23.047 53.642C23.0033 53.6012 22.9609 53.5591 22.9185 53.5145C21.3829 51.9934 20.1647 50.1871 19.3335 48.1988C18.5023 46.2106 18.0745 44.0794 18.0745 41.9272C18.0745 39.7749 18.5023 37.6437 19.3335 35.6555C20.1647 33.6673 21.3829 31.861 22.9185 30.3398L34.2974 19.0589L46.978 6.48464L53.1263 0.389921C51.1162 0.129657 49.0912 -0.000591199 47.0641 2.01717e-06C46.0969 2.01717e-06 45.1364 0.0293097 44.1828 0.087925L36.2392 7.96404L31.4263 12.7348L18.2958 25.7538C14.0392 29.9641 11.6149 35.6598 11.5423 41.6207C11.532 42.3598 11.5581 43.098 11.6207 43.8354C12.0678 49.2244 14.4339 54.28 18.2958 58.098L18.4243 58.2254C20.0025 59.7682 21.7966 61.0776 23.7513 62.1131C24.2654 62.3833 24.7837 62.6335 25.3064 62.8637C27.6447 63.8829 30.1376 64.5099 32.6832 64.719C33.426 64.7801 34.1705 64.8061 34.9168 64.7967C37.0735 64.7674 39.2156 64.4397 41.2809 63.8232Z" fill="url(#paint1_linear_71_11822)"/>
<defs>
<linearGradient id="paint0_linear_71_11822" x1="65.0077" y1="78.212" x2="52.5657" y2="40.7935" gradientUnits="userSpaceOnUse">
<stop stop-color="#F6871F"/>
<stop offset="1" stop-color="#FBAB18"/>
</linearGradient>
<linearGradient id="paint1_linear_71_11822" x1="29.1413" y1="14.385" x2="41.9723" y2="50.2803" gradientUnits="userSpaceOnUse">
<stop stop-color="#F6871F"/>
<stop offset="1" stop-color="#FBAB18"/>
</linearGradient>
</defs>
</svg>
