<svg width="253" height="92" viewBox="0 0 253 92" fill="none" xmlns="http://www.w3.org/2000/svg">
<path fill-rule="evenodd" clip-rule="evenodd" d="M13.2195 53.0794C10.8952 53.0946 8.61042 52.4828 6.60987 51.3094C4.61188 50.1554 2.95001 48.5073 1.78666 46.5259C0.602307 44.5432 -0.0152365 42.2781 0.000285561 39.9737V32.3614H5.91203V39.6475C5.90396 40.9211 6.24416 42.1731 6.89646 43.2702C7.53884 44.3673 8.45893 45.2792 9.56574 45.9156C10.6722 46.5627 11.9349 46.9004 13.2195 46.8929C14.5133 46.8977 15.7858 46.5656 16.9096 45.9299C18.0334 45.2941 18.9692 44.377 19.6234 43.2702C20.2761 42.1732 20.6168 40.9212 20.6091 39.6475V30.7278H26.5209V39.9674C26.5363 42.2715 25.9192 44.5365 24.7358 46.5195C23.5679 48.5048 21.8979 50.1536 19.8907 51.3031C17.8691 52.4787 15.5644 53.0902 13.2207 53.073L13.2195 53.0794ZM10.4692 26.9484V32.1588H15.7641V26.9484H10.4692ZM37.6452 45.9156C36.274 45.9295 34.925 45.5708 33.7448 44.8783C32.579 44.1947 31.6136 43.221 30.9442 42.0536C30.2747 40.8863 29.9243 39.5658 29.9278 38.2229V18.4823H35.8396V37.8508C35.8311 38.1032 35.8737 38.3546 35.9649 38.5903C36.0561 38.826 36.1939 39.0412 36.3704 39.2232C36.5383 39.4009 36.742 39.5415 36.9682 39.6362C37.1945 39.7308 37.4383 39.7772 37.6838 39.7724H76.1937C78.3288 39.7724 80.1074 39.1213 81.5297 37.819L85.5137 34.2371L79.8088 31.5064C79.2614 31.2898 78.8505 31.1814 78.5764 31.1814C78.2134 31.1832 77.8557 31.2669 77.5302 31.4261C77.1954 31.5831 76.8953 31.8045 76.6473 32.0772L72.869 36.2287L68.7642 32.6468L72.5412 28.0876C73.2991 27.2173 74.246 26.5285 75.3108 26.073C76.3272 25.6333 77.4237 25.4048 78.5327 25.4015C79.193 25.3862 79.8516 25.4756 80.4835 25.6665C81.0396 25.8518 81.5816 26.0762 82.1054 26.338L90.9306 30.408C91.1368 30.4997 91.3615 30.5433 91.5873 30.5354H95.98V36.2287H91.2596L90.5207 36.8799V37.8572C90.5158 38.1096 90.5623 38.3603 90.6574 38.5944C90.7526 38.8285 90.8944 39.0411 91.0744 39.2196C91.2544 39.398 91.4688 39.5386 91.7049 39.633C91.941 39.7273 92.1939 39.7734 92.4484 39.7686H98.8935C99.1479 39.7731 99.4006 39.7267 99.6365 39.6322C99.8725 39.5378 100.087 39.3972 100.267 39.2188C100.447 39.0404 100.588 38.8279 100.684 38.594C100.779 38.36 100.826 38.1095 100.821 37.8572V30.7342H106.692V37.8572C106.685 38.1082 106.728 38.3581 106.82 38.5922C106.912 38.8263 107.049 39.04 107.225 39.2207C107.4 39.4012 107.61 39.5434 107.844 39.638C108.077 39.7326 108.328 39.7775 108.58 39.7699H112.069C112.323 39.7747 112.576 39.7286 112.812 39.6342C113.049 39.5399 113.263 39.3993 113.443 39.2208C113.623 39.0424 113.765 38.8297 113.86 38.5956C113.955 38.3615 114.002 38.1108 113.997 37.8585V30.7355H119.867V37.9388C119.861 38.1901 119.904 38.4402 119.996 38.6745C120.088 38.9088 120.226 39.1226 120.402 39.3035C120.763 39.6568 121.249 39.8549 121.757 39.8549C122.264 39.8549 122.75 39.6568 123.111 39.3035C123.287 39.1226 123.425 38.9087 123.516 38.6744C123.608 38.44 123.651 38.19 123.644 37.9388V30.7342H129.556V37.8572C129.549 38.1082 129.593 38.3581 129.684 38.5922C129.776 38.8263 129.914 39.04 130.09 39.2207C130.258 39.3982 130.461 39.5388 130.687 39.6334C130.914 39.728 131.157 39.7745 131.403 39.7699H132.886V29.5122H138.798V45.9156H131.408C129.366 45.9156 127.772 45.216 126.627 43.8169C125.465 45.2695 123.843 45.9954 121.763 45.9946C119.683 45.9937 118.063 45.2716 116.905 43.8283C115.748 45.2181 114.137 45.9134 112.074 45.9143H108.584C106.613 45.9143 104.998 45.2495 103.74 43.9201C102.535 45.2504 100.92 45.9151 98.8948 45.9143H92.4497C90.8355 45.9143 89.4878 45.4666 88.4066 44.5712C87.3253 43.6758 86.5932 42.4955 86.2102 41.0301L84.7734 42.3731C83.5181 43.5378 82.0378 44.4381 80.4219 45.0198C78.7915 45.6131 77.068 45.9151 75.3313 45.9117H37.6452V45.9156ZM101.235 49.3356H106.49V54.5855H101.235V49.3356Z" fill="#FF8700"/>
<path fill-rule="evenodd" clip-rule="evenodd" d="M8.41515 63.7894L7.95121 65.5415C7.69485 65.4731 7.43222 65.4305 7.16726 65.4141C7.13003 65.4115 7.09267 65.4115 7.05545 65.4141C6.61636 65.4021 6.18957 65.5587 5.8641 65.8512C5.70654 65.9902 5.58119 66.1613 5.49667 66.3529C5.41215 66.5445 5.37046 66.752 5.37446 66.961C6.16869 67.1811 6.76415 67.351 7.16083 67.4707C7.37866 67.5315 7.58868 67.617 7.78671 67.7256C7.99316 67.8448 8.15914 68.0222 8.2635 68.2353C8.30128 68.3123 8.32768 68.3942 8.3419 68.4787C8.35781 68.5433 8.36516 68.6097 8.36374 68.6762C8.36374 68.7437 8.36374 68.8036 8.36374 68.8749C8.36374 70.8857 7.2645 71.8907 5.06602 71.8898H3.41458C2.55084 71.9119 1.71207 71.6013 1.07431 71.0233C0.357185 70.3709 -0.000946794 69.479 -9.00191e-05 68.3474C-9.00191e-05 67.3204 0.291213 66.2194 0.87382 65.0446L2.51112 65.8397C2.0536 66.7741 1.82527 67.5344 1.82613 68.1206C1.82414 68.3311 1.83746 68.5415 1.86597 68.7501C1.89451 68.9717 1.96009 69.187 2.06002 69.3872C2.30935 69.8459 2.76044 70.0778 3.41458 70.0778H5.07244C5.32549 70.0816 5.57816 70.0568 5.82555 70.0039C6.09543 69.9415 6.27664 69.8383 6.37174 69.6943C6.46974 69.5269 6.52283 69.3374 6.52596 69.1438C6.48055 69.1277 5.58608 68.8919 3.84254 68.4366C3.64463 68.0679 3.5461 67.5854 3.54696 66.9891C3.54546 66.2001 3.82801 65.4364 4.34376 64.8356C5.01975 64.0107 5.97591 63.5983 7.21224 63.5983C7.62085 63.5949 8.02725 63.6582 8.41515 63.7856V63.7894ZM13.0327 68.0747C13.0327 69.2241 12.7406 70.1263 12.1563 70.7812C11.5077 71.5143 10.5575 71.8801 9.30577 71.8784H8.75443V70.0689H9.30577C9.98947 70.0689 10.4753 69.9147 10.7657 69.6115C11.0562 69.3082 11.2052 68.7934 11.2052 68.0747V65.0981H13.0327V68.0747ZM15.7933 68.9145H13.967V60.9517H15.7933V68.9132V68.9145ZM20.628 65.0917V66.5979C20.6292 66.6779 20.6528 66.756 20.6962 66.8235C20.7395 66.891 20.8009 66.9452 20.8735 66.9801C20.99 67.0592 21.127 67.1034 21.2681 67.1076H23.0043C23.4666 67.1209 23.9289 67.0781 24.3807 66.9801C23.5317 66.9801 22.8377 66.7996 22.2988 66.4386C21.6587 66.0079 21.3392 65.375 21.34 64.54C21.3406 64.2857 21.3765 64.0327 21.4467 63.7882C21.5256 63.4923 21.6594 63.2136 21.8412 62.9663C22.2988 62.341 22.9927 62.028 23.9232 62.0271C24.9385 62.0271 25.6736 62.4672 26.1285 63.3473C26.4712 63.9997 26.6426 64.8445 26.6426 65.8817C26.6426 66.998 26.2142 67.8169 25.3574 68.3385C24.7174 68.7216 23.9331 68.9132 23.0043 68.9132H20.6653V68.8303L20.5831 68.8074C20.4751 69.6217 20.1975 70.2779 19.7528 70.7736C19.1043 71.5067 18.1541 71.8733 16.9024 71.8733H16.351V70.06H16.9024C17.5878 70.06 18.0744 69.9075 18.3623 69.6025C18.6502 69.2976 18.7963 68.7879 18.8005 68.0735V65.0904L20.628 65.0917ZM18.5718 62.8605L19.7349 64.0328L20.9121 62.872L19.731 61.7022L18.5744 62.8605H18.5718ZM24.8588 65.1911L24.8459 65.0637C24.8369 64.9732 24.8241 64.8904 24.8138 64.8088C24.7911 64.6412 24.748 64.4769 24.6853 64.3195C24.632 64.1603 24.532 64.0204 24.398 63.9178C24.2641 63.8152 24.1024 63.7545 23.9335 63.7436H23.8782H23.8281C23.7225 63.7387 23.617 63.7554 23.5182 63.7927C23.4193 63.8299 23.3293 63.887 23.2536 63.9602C23.1269 64.0965 23.0595 64.2769 23.066 64.4622V64.5107C23.0624 64.671 23.1146 64.8278 23.2138 64.9545C23.3131 65.0812 23.4533 65.1701 23.6109 65.2064C23.8294 65.2739 24.2535 65.3058 24.8691 65.3058L24.8588 65.1911ZM22.3617 60.2139L23.5184 59.0569L24.6994 60.2266L23.5222 61.3862L22.3656 60.2139H22.3617ZM29.254 68.9132H27.4291V60.9504H29.254V68.9132ZM39.3169 67.7268C39.4711 67.7268 39.5932 67.6135 39.6844 67.3892C39.7687 67.1608 39.8092 66.9188 39.8039 66.6756C39.8079 66.3743 39.7051 66.0812 39.5135 65.8473C39.4244 65.7303 39.309 65.6356 39.1765 65.5706C39.0439 65.5055 38.898 65.472 38.7501 65.4727C38.5265 65.4727 38.3067 65.6537 38.0882 66.0143C37.8968 66.3308 37.7555 66.6746 37.6693 67.0337C38.3376 67.3357 38.8439 67.5561 39.1845 67.6925C39.2248 67.711 39.2686 67.7205 39.313 67.7205L39.3169 67.7268ZM38.7501 63.6607C39.1446 63.6617 39.5333 63.7547 39.8849 63.9322C40.2154 64.1017 40.5089 64.3342 40.7485 64.6164C40.9857 64.8925 41.1703 65.209 41.2934 65.5504C41.4228 65.895 41.4894 66.2596 41.4901 66.6272C41.5112 67.3217 41.3081 68.0047 40.9105 68.5768C40.7282 68.8476 40.4803 69.0688 40.1896 69.2201C39.8989 69.3715 39.5745 69.4482 39.2462 69.4433C38.91 69.4445 38.5762 69.3884 38.2592 69.2776C37.6641 69.0433 37.082 68.7779 36.5152 68.4825L36.1991 68.3219L35.8996 68.1626V73.0213H34.0773V66.4552L35.2737 65.7645L36.0988 66.2181C36.2313 65.73 36.438 65.2646 36.7118 64.8381C36.9691 64.4329 37.3307 64.1031 37.7592 63.8825C38.0683 63.735 38.4071 63.6592 38.7501 63.6607ZM46.046 65.0904V66.5966C46.0469 66.6767 46.0703 66.7549 46.1137 66.8224C46.1571 66.89 46.2186 66.9442 46.2914 66.9789C46.4075 67.0579 46.544 67.1021 46.6847 67.1063H47.0908C47.4262 67.1063 47.6614 67.0642 47.8002 66.9789C47.869 66.9369 47.9249 66.8771 47.9618 66.8059C47.9988 66.7347 48.0153 66.6548 48.0097 66.5749C48.0098 66.5136 48.0025 66.4524 47.9879 66.3927C47.9506 66.2054 47.9146 66.0104 47.8773 65.818C47.8632 65.7454 47.8465 65.6664 47.8323 65.581L47.8079 65.4727L47.7912 65.367C47.736 65.065 47.6936 64.8509 47.6627 64.7209L49.4067 64.1972C49.5172 64.7145 49.6431 65.3555 49.7845 66.1086C49.8142 66.2769 49.8292 66.4474 49.8295 66.6183C49.8349 67.1025 49.682 67.5754 49.3938 67.9664C48.9363 68.5976 48.1819 68.9132 47.1306 68.9132H45.9856C45.869 69.6777 45.597 70.2979 45.1695 70.7736C44.5201 71.5067 43.5699 71.8733 42.319 71.8733H41.7677V70.06H42.319C43.0044 70.06 43.4911 69.9075 43.7789 69.6025C44.0707 69.2967 44.2185 68.7845 44.2185 68.0735V65.0904H46.046ZM46.6397 62.0565L47.7964 60.8994L48.9761 62.0692L47.8002 63.23L46.6359 62.0565H46.6397ZM57.9119 67.105V66.5354C57.9268 66.2508 57.8503 65.9689 57.6934 65.7301C57.6276 65.6362 57.5392 65.56 57.4362 65.5086C57.3332 65.4572 57.2188 65.4321 57.1035 65.4358C56.9869 65.4327 56.8712 65.4579 56.7666 65.5092C56.6621 65.5605 56.5717 65.6363 56.5033 65.7301C56.3582 65.9347 56.2855 66.1811 56.2964 66.4309C56.2967 66.4659 56.2988 66.5007 56.3028 66.5354C56.3036 66.6248 56.3277 66.7126 56.3727 66.79C56.4178 66.8675 56.4822 66.9321 56.5599 66.9776C56.7242 67.0681 56.9105 67.1122 57.0984 67.105H57.9119ZM57.1035 63.6263C57.9251 63.6263 58.5784 63.9237 59.0634 64.5183C59.5132 65.0603 59.7381 65.7339 59.7381 66.5393V68.5666C59.7381 69.8485 59.2056 70.7634 58.1406 71.3113C57.6776 71.5402 57.1817 71.6967 56.6704 71.7751C56.1924 71.8555 55.7082 71.8943 55.2233 71.8911V70.0791C56.1499 70.0791 56.8478 69.9517 57.3156 69.6968C57.6934 69.493 57.8836 69.2317 57.8836 68.9196H57.1035C56.497 68.9384 55.9021 68.7514 55.4174 68.3895C54.8558 67.9613 54.5756 67.3484 54.5756 66.5444C54.5543 65.857 54.7492 65.1801 55.1334 64.6075C55.5857 63.9585 56.2424 63.6344 57.1035 63.6352V63.6263ZM66.7628 65.855C66.3344 66.7546 66.1202 67.5442 66.1202 68.2238C66.1202 68.2913 66.1202 68.3602 66.1202 68.4341C66.1277 68.5248 66.1406 68.615 66.1588 68.7042C66.1942 68.9209 66.2659 69.1302 66.3708 69.3235C66.6574 69.8332 67.1342 70.088 67.8063 70.088H69.3485C70.1196 70.088 70.6598 69.9869 70.9691 69.7848C71.1246 69.6815 71.2043 69.5809 71.2082 69.4815C70.6812 69.1757 69.9556 68.9365 69.0311 68.7641V67.1076H76.7896C77.1392 67.1076 77.3756 67.0222 77.5016 66.8527C77.5483 66.789 77.5792 66.7152 77.5916 66.6374C77.5916 66.603 77.5916 66.5686 77.6018 66.5329V60.9606H79.4229V66.4488C79.4269 66.7854 79.3663 67.1197 79.2443 67.4338C79.1178 67.7425 78.9258 68.0207 78.6814 68.2493C78.1956 68.6987 77.5646 68.9234 76.7883 68.9234H72.7761C72.8692 69.0902 72.9137 69.2795 72.9046 69.47C72.9046 69.5554 72.9046 69.6408 72.8956 69.7249C72.8793 69.8399 72.8566 69.9539 72.8275 70.0664C72.7503 70.3652 72.6057 70.6427 72.4046 70.8781C71.8212 71.5577 70.8038 71.8975 69.3524 71.8975H67.8102C66.5747 71.8975 65.643 71.468 65.015 70.6092C64.5201 69.9146 64.2646 69.0803 64.2863 68.2302C64.2991 67.4832 64.4399 66.7438 64.7027 66.0436C64.8192 65.7122 64.9592 65.3895 65.1216 65.0777L66.7654 65.8614L66.7628 65.855ZM83.1743 68.9132H82.6718C82.292 68.9186 81.9152 68.8457 81.5653 68.6991C81.0749 68.4898 80.684 68.1022 80.4729 67.616C80.3232 67.2687 80.2492 66.8939 80.2557 66.5163V60.9504H82.078V66.5163C82.078 66.7406 82.1192 66.8986 82.2066 66.9801C82.294 67.0617 82.4456 67.1076 82.6744 67.1076H83.1152C83.4896 67.1076 83.7363 67.0307 83.8554 66.8769C83.9854 66.6111 84.0899 66.3338 84.1677 66.0487L84.1999 65.9531C84.2123 65.9098 84.2274 65.8673 84.2448 65.8257C84.2813 65.7237 84.3243 65.6241 84.3734 65.5275C84.492 65.2729 84.6418 65.0336 84.8193 64.8152C85.0414 64.5314 85.3273 64.303 85.6542 64.1481C85.981 63.9933 86.3399 63.9163 86.7021 63.9232C87.0974 63.908 87.4895 63.9996 87.8365 64.1881C88.1835 64.3766 88.4724 64.655 88.6722 64.9936C88.8527 65.2838 88.9863 65.6002 89.068 65.9314C89.1392 66.2093 89.1767 66.4947 89.1799 66.7814C89.1799 67.6759 88.9532 68.3461 88.5 68.7921C88.1915 69.1041 87.7768 69.2908 87.3369 69.3158C87.2853 69.3211 87.2333 69.3233 87.1814 69.3222C86.6685 69.3118 86.1634 69.1955 85.6984 68.9807C85.5022 68.8975 85.3108 68.8035 85.1252 68.6991L84.9967 68.6316L84.8861 68.5717C84.8 68.5207 84.7383 68.4838 84.7024 68.4659C84.3978 68.7679 83.8888 68.9196 83.1807 68.9196L83.1743 68.9132ZM87.4153 67.328C87.4654 67.1895 87.4902 67.0432 87.4886 66.8961C87.4893 66.8535 87.4871 66.8109 87.4822 66.7686C87.4709 66.5057 87.384 66.2514 87.2316 66.0359C87.1768 65.944 87.0998 65.867 87.0077 65.8119C86.9155 65.7567 86.8109 65.7251 86.7034 65.7199C86.427 65.7199 86.2021 65.8817 86.0222 66.2054C85.9503 66.3372 85.8922 66.476 85.8487 66.6195C85.8307 66.6731 85.8102 66.7329 85.787 66.8081L85.7652 66.8909L85.7421 66.9623C85.9869 67.1636 86.2664 67.3194 86.5671 67.4223C86.7767 67.5035 86.9979 67.5512 87.2226 67.5638C87.2907 67.5638 87.3511 67.4848 87.4128 67.3267L87.4153 67.328ZM101.809 68.5373C101.809 69.5083 101.569 70.2741 101.087 70.8309C100.765 71.1888 100.357 71.4605 99.9007 71.621C99.3721 71.8008 98.8157 71.887 98.257 71.8758H97.4152C96.8213 71.8841 96.2327 71.7655 95.6892 71.5279C95.1306 71.2836 94.6565 70.8822 94.3256 70.3735C93.9648 69.7872 93.781 69.1106 93.7962 68.4239C93.7962 68.3321 93.7962 68.2391 93.7962 68.1486C93.8416 67.2898 94.1072 66.3379 94.593 65.293L96.2534 66.0487C95.8678 66.8808 95.6532 67.6122 95.6185 68.2416C95.6185 68.3041 95.6185 68.3691 95.6185 68.4302C95.604 68.7697 95.6912 69.1058 95.8691 69.3961C96.048 69.6632 96.3167 69.8587 96.6274 69.9479C96.7647 69.9935 96.9064 70.0251 97.0502 70.0422C97.1721 70.0571 97.2949 70.0643 97.4177 70.0638H98.2595C98.9535 70.0638 99.4247 69.9364 99.6732 69.6816C99.8853 69.4649 99.9894 69.0852 99.9894 68.5347V65.0943H101.81V68.5347L101.809 68.5373ZM96.9152 64.6597L98.0783 65.832L99.2555 64.6712L98.0745 63.5015L96.9178 64.6597H96.9152ZM105.564 68.9132H105.062C104.682 68.9186 104.305 68.8457 103.955 68.6991C103.465 68.4898 103.074 68.1022 102.863 67.616C102.714 67.2686 102.64 66.8938 102.647 66.5163V60.9504H104.468V66.5163C104.468 66.7406 104.509 66.8986 104.597 66.9801C104.684 67.0617 104.834 67.1076 105.063 67.1076H107.955C108.34 67.1076 108.606 67.0311 108.752 66.8769C108.86 66.761 108.984 66.4857 109.126 66.0487C109.136 66.0143 109.147 65.9837 109.158 65.9531C109.17 65.9098 109.185 65.8673 109.203 65.8257C109.24 65.7222 109.283 65.621 109.331 65.5224C109.45 65.2683 109.6 65.0295 109.777 64.8114C109.998 64.5252 110.283 64.2945 110.61 64.138C110.937 63.9815 111.297 63.9036 111.66 63.9105C112.049 63.8964 112.435 63.9856 112.777 64.1689C113.12 64.3521 113.407 64.6228 113.608 64.9528C113.789 65.2363 113.925 65.5457 114.01 65.8703C114.086 66.1456 114.129 66.4286 114.139 66.7138C114.136 66.7632 114.144 66.8126 114.163 66.8586C114.181 66.9045 114.21 66.946 114.246 66.9801C114.343 67.0584 114.464 67.1031 114.589 67.1076H116.59C116.924 67.1076 117.159 67.0655 117.297 66.9801C117.366 66.9389 117.423 66.8792 117.46 66.8079C117.498 66.7366 117.514 66.6564 117.509 66.5762C117.507 66.5149 117.499 66.4538 117.486 66.394C117.45 66.2067 117.412 66.0117 117.376 65.8193C117.36 65.7467 117.345 65.6677 117.331 65.5823L117.308 65.4778L117.291 65.372C117.235 65.07 117.194 64.856 117.163 64.726L118.907 64.2023C119.017 64.7196 119.145 65.3606 119.285 66.1137C119.314 66.282 119.33 66.4525 119.33 66.6234C119.335 67.1074 119.183 67.5802 118.895 67.9715C118.432 68.6044 117.676 68.9208 116.628 68.9208H114.44V68.9094C114.134 68.8863 113.835 68.8059 113.559 68.6723C113.383 68.8832 113.161 69.0514 112.909 69.1642C112.712 69.2509 112.501 69.3027 112.286 69.3171C112.238 69.3218 112.189 69.3239 112.141 69.3235C111.644 69.3131 111.155 69.2044 110.702 69.0036C110.517 68.9272 110.317 68.8278 110.097 68.7106L109.969 68.6392L109.908 68.6048L109.853 68.5729C109.759 68.522 109.696 68.485 109.656 68.4672C109.257 68.7666 108.687 68.9145 107.947 68.9145H107.888C107.865 68.9166 107.842 68.9166 107.819 68.9145L105.564 68.9132ZM112.376 67.3216C112.425 67.1837 112.449 67.0384 112.448 66.8922C112.448 66.8514 112.448 66.8119 112.448 66.7648C112.433 66.5028 112.343 66.2502 112.191 66.0359C112.137 65.9428 112.06 65.8647 111.968 65.8088C111.876 65.7529 111.771 65.721 111.662 65.7161C111.387 65.7161 111.16 65.8779 110.983 66.2016C110.91 66.331 110.852 66.4677 110.809 66.6093C110.789 66.662 110.769 66.7244 110.747 66.7967L110.727 66.8808L110.705 66.9508C110.947 67.1553 111.226 67.3115 111.528 67.4108C111.738 67.494 111.96 67.5426 112.186 67.5548C112.252 67.5548 112.314 67.4758 112.374 67.3153L112.376 67.3216ZM118.138 63.3536L119.241 62.2603L118.128 61.1568L117.049 62.2603L118.138 63.3536ZM115.807 63.3536L116.903 62.2603L115.788 61.1543L114.715 62.2603L115.807 63.3536ZM124.032 68.0684C124.032 69.2177 123.74 70.1199 123.156 70.7748C122.506 71.508 121.556 71.8737 120.305 71.872H119.754V70.0626H120.291C120.975 70.0626 121.462 69.9084 121.751 69.6051C122.04 69.3018 122.191 68.787 122.191 68.0684V65.0917H124.018V68.0684H124.032ZM127.888 68.9081H127.385C127.005 68.9135 126.629 68.8406 126.279 68.694C125.788 68.4847 125.397 68.0971 125.186 67.6109C125.037 67.2635 124.963 66.8888 124.97 66.5112V60.9453H126.791V66.5112C126.791 66.7355 126.833 66.8935 126.92 66.9751C127.007 67.0566 127.159 67.1025 127.388 67.1025H129.738C130.074 67.1025 130.309 67.0604 130.445 66.9751C130.515 66.9338 130.571 66.8741 130.609 66.8028C130.646 66.7315 130.663 66.6513 130.657 66.5711C130.656 66.5098 130.649 66.4487 130.635 66.3889C130.598 66.2016 130.562 66.0066 130.525 65.8142C130.508 65.7416 130.494 65.6626 130.48 65.5772L130.458 65.4727L130.441 65.367C130.383 65.065 130.344 64.8509 130.313 64.7209L132.057 64.1972C132.166 64.7145 132.293 65.3555 132.435 66.1086C132.464 66.277 132.479 66.4474 132.48 66.6183C132.485 67.1025 132.332 67.5754 132.044 67.9664C131.58 68.5993 130.825 68.9157 129.777 68.9157L127.888 68.9081ZM128.916 71.9663L127.813 70.8959L128.916 69.7695L130.018 70.8959L128.916 71.9663ZM131.315 71.9892L130.202 70.8959L131.334 69.8026L132.424 70.8959L131.315 71.9892ZM130.142 73.2635L131.099 72.3129L130.129 71.3521L129.172 72.3014L130.142 73.2635ZM136.363 62.5521L136.464 62.6936C136.482 62.723 136.503 62.7511 136.525 62.7777C136.55 62.8159 136.574 62.8516 136.596 62.8885L136.796 63.1638C136.978 63.4186 137.182 63.7143 137.406 64.0303C137.693 64.4355 138.01 64.8802 138.35 65.3631C138.607 65.7152 138.765 66.1285 138.808 66.5609C138.848 66.9753 138.769 67.3925 138.579 67.7638C138.389 68.129 138.095 68.4305 137.733 68.6303C137.353 68.843 136.922 68.9521 136.485 68.9463C135.951 68.9463 135.255 68.8355 134.397 68.6137C134.14 68.5475 133.883 68.4748 133.626 68.3933C133.544 68.3716 133.467 68.3474 133.391 68.3232C133.369 68.3152 133.347 68.3088 133.325 68.3041L133.307 68.2939H133.271L133.855 66.5775C133.996 66.6246 134.162 66.6769 134.352 66.7317C134.586 66.7979 134.815 66.8591 135.042 66.9139C135.504 67.0396 135.978 67.1135 136.456 67.1343C136.697 67.1343 136.854 67.0668 136.929 66.9292C136.955 66.878 136.969 66.8211 136.969 66.7635C136.959 66.6329 136.91 66.5081 136.829 66.4055C136.487 65.9238 136.173 65.4778 135.883 65.0688C135.662 64.7591 135.459 64.4712 135.27 64.2023C134.971 63.7869 134.825 63.5766 134.825 63.5728L136.363 62.5521Z" fill="#002357"/>
<path fill-rule="evenodd" clip-rule="evenodd" d="M211.484 91.4348C234.482 88.7742 252.331 69.3903 252.331 45.8729C252.331 23.2664 235.838 4.47895 214.132 0.694438L208.234 6.54196L195.533 19.1353L188.151 26.4546L183.077 31.4853L183.057 31.5057C180.271 34.2764 178.708 38.0304 178.712 41.9428C178.716 45.8553 180.286 49.6062 183.077 52.3715L183.206 52.4989C184.83 54.0762 186.799 55.2617 188.959 55.9636C191.37 56.7479 193.944 56.9093 196.435 56.4325C199.241 55.8964 201.832 54.5691 203.897 52.6098L204.137 52.3715L209.211 47.3408L212.619 43.9615C213.732 42.8545 215.14 42.0842 216.678 41.7405C216.88 41.6946 217.083 41.6576 217.286 41.6271C218.547 41.4383 219.836 41.5391 221.052 41.9218C222.268 42.3044 223.379 42.9586 224.3 43.8341L224.429 43.9615C225.991 45.511 226.871 47.6114 226.875 49.8026C226.879 51.9939 226.007 54.0975 224.45 55.6527C224.443 55.6603 224.436 55.668 224.429 55.6744C224.421 55.6807 224.414 55.6884 224.407 55.696L215.704 64.3214L214.337 65.6772L209.215 70.7551L201.914 77.9992L195.902 83.9614C195.298 83.8033 194.698 83.6334 194.103 83.4517C189.594 82.0389 185.377 79.8381 181.651 76.953C177.291 73.5834 173.685 69.3522 171.062 64.5278C167.95 58.7949 166.326 52.3837 166.338 45.8729C166.337 43.9204 166.482 41.9706 166.771 40.0394C167.804 33.1512 170.663 26.6584 175.055 21.2244C179.448 15.7903 185.216 11.6096 191.771 9.10956L200.645 0.317261C177.647 2.97152 159.799 22.3554 159.799 45.8729C159.799 68.4793 176.292 87.2667 197.999 91.0513L203.896 85.2037L216.603 72.6104L223.985 65.2911L229.059 60.2604L229.08 60.24C231.865 57.4684 233.426 53.714 233.421 49.8016C233.416 45.8891 231.845 42.1386 229.053 39.3742L228.924 39.2468C227.3 37.6695 225.331 36.484 223.17 35.7821C220.759 34.9978 218.186 34.8364 215.695 35.3132C213.503 35.7305 211.436 36.6331 209.645 37.9534C209.15 38.3183 208.678 38.7133 208.232 39.1359L207.993 39.3742L202.919 44.4049L199.511 47.7842C198.398 48.8912 196.99 49.6615 195.452 50.0052C195.25 50.0511 195.048 50.0881 194.844 50.1186C193.583 50.3074 192.294 50.2066 191.078 49.8239C189.862 49.4413 188.751 48.7871 187.83 47.9116L187.701 47.7842C186.139 46.2347 185.259 44.1344 185.255 41.9431C185.251 39.7518 186.122 37.6483 187.679 36.093L187.701 36.0713L187.723 36.0497L196.426 27.4243L197.792 26.0685L202.915 20.9906L209.562 14.399L216.228 7.78817C216.828 7.94617 217.427 8.11607 218.027 8.29787C234.119 13.3299 245.792 28.25 245.792 45.8729C245.792 47.8253 245.648 49.7751 245.359 51.7064C245.112 53.3604 244.758 54.9969 244.298 56.6058C242.612 62.4859 239.573 67.8976 235.418 72.4147C231.264 76.9317 226.109 80.4307 220.358 82.6361L211.484 91.4348Z" fill="#002357"/>
<path fill-rule="evenodd" clip-rule="evenodd" d="M208.946 91.6579L216.889 83.7818L221.472 79.2378L234.838 65.9857C239.091 61.7761 241.513 56.0831 241.586 50.1251C241.596 49.386 241.57 48.6478 241.508 47.9105C241.061 42.5214 238.694 37.4658 234.833 33.6478L234.704 33.5204C233.126 31.9776 231.332 30.6683 229.377 29.6327C228.863 29.3625 228.345 29.1124 227.822 28.8822C225.484 27.8629 222.991 27.2359 220.445 27.0269C219.702 26.9657 218.958 26.9398 218.212 26.9491C216.055 26.9784 213.913 27.3061 211.847 27.9226C209.675 28.5706 207.612 29.5351 205.726 30.7846C205.273 31.0853 204.828 31.4039 204.39 31.7403C203.622 32.3313 202.892 32.9697 202.205 33.6517L199.635 36.2002L192.556 43.2187C192.252 43.5199 192.011 43.8775 191.847 44.271C191.682 44.6646 191.598 45.0864 191.598 45.5123C191.598 45.9383 191.682 46.3601 191.847 46.7537C192.011 47.1472 192.252 47.5048 192.556 47.806C192.86 48.1072 193.22 48.3461 193.617 48.5091C194.014 48.6721 194.44 48.756 194.869 48.756C195.299 48.756 195.724 48.6721 196.121 48.5091C196.518 48.3461 196.879 48.1072 197.183 47.806L201.866 43.1626L206.835 38.2275C207.141 37.9242 207.455 37.6358 207.777 37.3623C208.214 36.991 208.67 36.6423 209.144 36.3174C210.958 35.0759 213.006 34.2092 215.166 33.7689C217.659 33.2586 220.238 33.3236 222.702 33.9588C225.485 34.6767 228.03 36.106 230.081 38.1039C230.125 38.1447 230.167 38.1867 230.21 38.2313C231.746 39.7524 232.964 41.5588 233.795 43.547C234.626 45.5352 235.054 47.6664 235.054 49.8187C235.054 51.9709 234.626 54.1021 233.795 56.0903C232.964 58.0785 231.746 59.8849 230.21 61.406L218.831 72.6869L206.15 85.2612L200.005 91.3546C202.014 91.6153 204.038 91.746 206.064 91.7458C207.032 91.7458 207.992 91.7165 208.946 91.6579Z" fill="url(#paint0_linear_71_11818)"/>
<path fill-rule="evenodd" clip-rule="evenodd" d="M200.281 63.8232C202.453 63.1753 204.516 62.2107 206.402 60.9612C206.855 60.6605 207.301 60.3419 207.739 60.0055C208.507 59.4145 209.236 58.7761 209.923 58.0942L212.494 55.5457L219.572 48.5271C219.876 48.2259 220.117 47.8683 220.282 47.4748C220.446 47.0813 220.531 46.6595 220.531 46.2335C220.531 45.8075 220.446 45.3857 220.282 44.9922C220.117 44.5986 219.876 44.241 219.572 43.9398C219.269 43.6386 218.908 43.3997 218.511 43.2367C218.114 43.0737 217.689 42.9898 217.259 42.9898C216.83 42.9898 216.404 43.0737 216.007 43.2367C215.61 43.3997 215.25 43.6386 214.946 43.9398L210.263 48.5832L205.293 53.5184C204.987 53.8216 204.673 54.11 204.351 54.3836C203.914 54.7548 203.458 55.1035 202.985 55.4284C201.17 56.67 199.122 57.5367 196.963 57.9769C194.469 58.4872 191.891 58.4222 189.426 57.7871C186.643 57.0691 184.099 55.6398 182.047 53.642C182.003 53.6012 181.961 53.5591 181.919 53.5145C180.383 51.9934 179.165 50.1871 178.333 48.1988C177.502 46.2106 177.074 44.0794 177.074 41.9272C177.074 39.7749 177.502 37.6438 178.333 35.6555C179.165 33.6673 180.383 31.861 181.919 30.3398L193.297 19.0589L205.978 6.48464L212.126 0.389921C210.116 0.129657 208.091 -0.000591199 206.064 2.01717e-06C205.097 2.01717e-06 204.136 0.0293097 203.183 0.087925L195.239 7.96404L190.426 12.7348L177.296 25.7538C173.039 29.9641 170.615 35.6598 170.542 41.6207C170.532 42.3598 170.558 43.098 170.621 43.8354C171.068 49.2244 173.434 54.28 177.296 58.098L177.424 58.2254C179.003 59.7682 180.797 61.0776 182.751 62.1131C183.265 62.3833 183.784 62.6335 184.306 62.8637C186.645 63.8829 189.138 64.5099 191.683 64.719C192.426 64.7801 193.171 64.8061 193.917 64.7967C196.074 64.7674 198.216 64.4397 200.281 63.8232Z" fill="url(#paint1_linear_71_11818)"/>
<defs>
<linearGradient id="paint0_linear_71_11818" x1="224.008" y1="78.212" x2="211.566" y2="40.7935" gradientUnits="userSpaceOnUse">
<stop stop-color="#F6871F"/>
<stop offset="1" stop-color="#FBAB18"/>
</linearGradient>
<linearGradient id="paint1_linear_71_11818" x1="188.141" y1="14.385" x2="200.972" y2="50.2803" gradientUnits="userSpaceOnUse">
<stop stop-color="#F6871F"/>
<stop offset="1" stop-color="#FBAB18"/>
</linearGradient>
</defs>
</svg>
